<svg xmlns="http://www.w3.org/2000/svg" xmlns:xlink="http://www.w3.org/1999/xlink" width="15" height="15" viewBox="0 0 15 15"><defs><clipPath id="a"><rect width="15" height="15" transform="translate(198 766)" fill="#fff" stroke="#707070" stroke-width="1"/></clipPath><clipPath id="b"><rect width="13.846" height="15" fill="none"/></clipPath></defs><g transform="translate(-198 -766)" clip-path="url(#a)"><g transform="translate(198.577 766)" clip-path="url(#b)"><path d="M6.44,1.224A18.3,18.3,0,0,1,9.025,1.3a3.1,3.1,0,0,1,1.22.233,2.636,2.636,0,0,1,1.22,1.322,3.877,3.877,0,0,1,.216,1.323c0,.7.072.933.072,2.8a23.244,23.244,0,0,1-.072,2.8,3.877,3.877,0,0,1-.215,1.322,2.636,2.636,0,0,1-1.22,1.322,3.1,3.1,0,0,1-1.22.233c-.646,0-.861.078-2.585.078a18.3,18.3,0,0,1-2.585-.078,3.1,3.1,0,0,1-1.22-.233A2.636,2.636,0,0,1,1.416,11.1,3.876,3.876,0,0,1,1.2,9.78c0-.7-.072-.933-.072-2.8A23.243,23.243,0,0,1,1.2,4.18a3.877,3.877,0,0,1,.215-1.322,2.806,2.806,0,0,1,.5-.778,1.219,1.219,0,0,1,.718-.544A3.1,3.1,0,0,1,3.855,1.3,18.3,18.3,0,0,1,6.44,1.224m0-1.244A19.588,19.588,0,0,0,3.783.058,4.13,4.13,0,0,0,2.2.369a2.789,2.789,0,0,0-1.148.778A3.092,3.092,0,0,0,.338,2.391,3.8,3.8,0,0,0,.051,4.1,24.888,24.888,0,0,0-.021,6.98,24.889,24.889,0,0,0,.051,9.858a5.157,5.157,0,0,0,.287,1.711,3.092,3.092,0,0,0,.718,1.244,2.789,2.789,0,0,0,1.148.778,4.13,4.13,0,0,0,1.579.311,19.588,19.588,0,0,0,2.657.078A19.588,19.588,0,0,0,9.1,13.9a4.129,4.129,0,0,0,1.579-.311,3.148,3.148,0,0,0,1.866-2.022,5.157,5.157,0,0,0,.287-1.711c0-.778.072-1.011.072-2.878A24.888,24.888,0,0,0,12.83,4.1a5.157,5.157,0,0,0-.287-1.711,3.092,3.092,0,0,0-.718-1.244A2.789,2.789,0,0,0,10.676.369,4.129,4.129,0,0,0,9.1.058,19.588,19.588,0,0,0,6.44-.02m0,3.422a3.124,3.124,0,0,0-2.352,1.03A3.678,3.678,0,0,0,3.137,6.98a3.449,3.449,0,0,0,3.3,3.578,3.449,3.449,0,0,0,3.3-3.578A3.449,3.449,0,0,0,6.44,3.4m0,5.911a2.034,2.034,0,0,1-1.534-.671A2.4,2.4,0,0,1,4.287,6.98a2.4,2.4,0,0,1,.619-1.662,2.09,2.09,0,0,1,3.068,0A2.4,2.4,0,0,1,8.594,6.98a2.4,2.4,0,0,1-.619,1.662,2.034,2.034,0,0,1-1.534.671M9.886,2.391a.825.825,0,0,0-.79.856.793.793,0,1,0,1.58,0,.832.832,0,0,0-.79-.856" transform="translate(0.021 0.02)" fill="#fff" fill-rule="evenodd"/></g></g></svg>