<svg xmlns="http://www.w3.org/2000/svg" xmlns:xlink="http://www.w3.org/1999/xlink" width="15" height="15" viewBox="0 0 15 15"><defs><clipPath id="a"><rect width="15" height="15" transform="translate(16 766)" fill="#fff" stroke="#707070" stroke-width="1"/></clipPath><clipPath id="b"><rect width="13.846" height="15" fill="none"/></clipPath></defs><g transform="translate(-16 -766)" clip-path="url(#a)"><g transform="translate(16.577 766)" clip-path="url(#b)"><rect width="12.923" height="14" fill="none"/><path d="M95.225,15.967a7.068,7.068,0,0,0,5.261-2.331,8.313,8.313,0,0,0,2.151-5.7V7.553A6.039,6.039,0,0,0,103.908,6.1a5.52,5.52,0,0,1-1.482.459,2.945,2.945,0,0,0,1.13-1.53,6.188,6.188,0,0,1-1.624.688,2.439,2.439,0,0,0-1.907-.917,2.77,2.77,0,0,0-2.612,2.83,1.608,1.608,0,0,0,.07.612,7.135,7.135,0,0,1-5.366-2.983,3.092,3.092,0,0,0,.777,3.824,2.248,2.248,0,0,1-1.2-.382h0a2.749,2.749,0,0,0,2.118,2.753,2.017,2.017,0,0,1-.706.076,1.115,1.115,0,0,1-.494-.076,2.712,2.712,0,0,0,2.471,1.989,5.077,5.077,0,0,1-3.247,1.224,1.812,1.812,0,0,1-.636-.077,6.319,6.319,0,0,0,4.025,1.377" transform="translate(-91.2 -2.8)" fill="#fff" fill-rule="evenodd"/></g></g></svg>